<svg width="82" height="34" viewBox="0 0 82 34" fill="none" xmlns="http://www.w3.org/2000/svg">
<path d="M16.972 8.17999C17.428 8.17999 17.812 8.33599 18.124 8.64799C18.436 8.95999 18.592 9.34399 18.592 9.79999V24.776C18.592 26.672 18.208 28.304 17.44 29.672C16.672 31.064 15.58 32.12 14.164 32.84C12.772 33.584 11.14 33.956 9.26801 33.956C8.11601 33.956 6.92801 33.8 5.70401 33.488C4.48001 33.176 3.29201 32.744 2.14001 32.192C1.85201 32.072 1.61201 31.868 1.42001 31.58C1.25201 31.316 1.16801 31.028 1.16801 30.716C1.16801 30.26 1.32401 29.876 1.63601 29.564C1.97201 29.252 2.35601 29.096 2.78801 29.096C3.02801 29.096 3.24401 29.144 3.43601 29.24C4.34801 29.696 5.32001 30.056 6.35201 30.32C7.38401 30.584 8.38001 30.716 9.34001 30.716C11.236 30.716 12.712 30.212 13.768 29.204C14.824 28.22 15.352 26.744 15.352 24.776V23.12C14.536 24.128 13.564 24.92 12.436 25.496C11.308 26.072 10.108 26.36 8.83601 26.36C7.27601 26.36 5.83601 25.952 4.51601 25.136C3.22001 24.296 2.18801 23.18 1.42001 21.788C0.652005 20.372 0.268005 18.836 0.268005 17.18C0.268005 15.5 0.652005 13.964 1.42001 12.572C2.18801 11.156 3.22001 10.04 4.51601 9.22399C5.83601 8.38399 7.27601 7.96399 8.83601 7.96399C10.108 7.96399 11.308 8.25199 12.436 8.82799C13.564 9.40399 14.536 10.196 15.352 11.204V9.79999C15.352 9.34399 15.508 8.95999 15.82 8.64799C16.132 8.33599 16.516 8.17999 16.972 8.17999ZM9.484 23.3C10.564 23.3 11.56 23.024 12.472 22.472C13.384 21.92 14.104 21.176 14.632 20.24C15.16 19.304 15.424 18.284 15.424 17.18C15.424 16.052 15.16 15.02 14.632 14.084C14.104 13.148 13.384 12.404 12.472 11.852C11.56 11.3 10.564 11.024 9.484 11.024C8.40401 11.024 7.40801 11.3 6.49601 11.852C5.58401 12.404 4.85201 13.148 4.30001 14.084C3.77201 15.02 3.50801 16.052 3.50801 17.18C3.50801 18.284 3.77201 19.304 4.30001 20.24C4.85201 21.176 5.58401 21.92 6.49601 22.472C7.40801 23.024 8.40401 23.3 9.484 23.3Z" fill="white"/>
<path d="M39.5271 8.32399C39.9831 8.32399 40.3671 8.47999 40.6791 8.79199C40.9911 9.10399 41.1471 9.48799 41.1471 9.94399V24.38C41.1471 24.836 40.9911 25.22 40.6791 25.532C40.3671 25.844 39.9831 26 39.5271 26C39.0711 26 38.6871 25.844 38.3751 25.532C38.0631 25.22 37.9071 24.836 37.9071 24.38V23.372C37.1871 24.308 36.2871 25.04 35.2071 25.568C34.1271 26.096 32.9631 26.36 31.7151 26.36C30.2751 26.36 28.9551 26.012 27.7551 25.316C26.5551 24.596 25.5951 23.636 24.8751 22.436C24.1791 21.236 23.8311 19.916 23.8311 18.476V9.94399C23.8311 9.48799 23.9871 9.10399 24.2991 8.79199C24.6111 8.47999 24.9951 8.32399 25.4511 8.32399C25.9071 8.32399 26.2911 8.47999 26.6031 8.79199C26.9151 9.10399 27.0711 9.48799 27.0711 9.94399V17.72C27.0711 18.728 27.3111 19.664 27.7911 20.528C28.2711 21.368 28.9311 22.04 29.7711 22.544C30.6111 23.048 31.5231 23.3 32.5071 23.3C33.4911 23.3 34.3911 23.048 35.2071 22.544C36.0471 22.04 36.7071 21.368 37.1871 20.528C37.6671 19.664 37.9071 18.728 37.9071 17.72V9.94399C37.9071 9.48799 38.0631 9.10399 38.3751 8.79199C38.6871 8.47999 39.0711 8.32399 39.5271 8.32399Z" fill="white"/>
<path d="M48.2734 5.94799C47.7454 5.94799 47.2894 5.75599 46.9054 5.37199C46.5214 4.98799 46.3294 4.51999 46.3294 3.96799C46.3294 3.41599 46.5214 2.94799 46.9054 2.56399C47.2894 2.17999 47.7454 1.98799 48.2734 1.98799C48.8014 1.98799 49.2574 2.17999 49.6414 2.56399C50.0254 2.94799 50.2174 3.41599 50.2174 3.96799C50.2174 4.51999 50.0254 4.98799 49.6414 5.37199C49.2574 5.75599 48.8014 5.94799 48.2734 5.94799ZM48.2734 26C47.8174 26 47.4334 25.844 47.1214 25.532C46.8094 25.22 46.6534 24.836 46.6534 24.38V9.94399C46.6534 9.48799 46.8094 9.10399 47.1214 8.79199C47.4334 8.47999 47.8174 8.32399 48.2734 8.32399C48.7294 8.32399 49.1134 8.47999 49.4254 8.79199C49.7374 9.10399 49.8934 9.48799 49.8934 9.94399V24.38C49.8934 24.836 49.7374 25.22 49.4254 25.532C49.1134 25.844 48.7294 26 48.2734 26Z" fill="white"/>
<path d="M71.7454 0.799988C72.2014 0.799988 72.5854 0.955988 72.8974 1.26799C73.2094 1.57999 73.3654 1.96399 73.3654 2.41999V24.38C73.3654 24.836 73.2094 25.22 72.8974 25.532C72.5854 25.844 72.2014 26 71.7454 26C71.2894 26 70.9054 25.844 70.5934 25.532C70.2814 25.22 70.1254 24.836 70.1254 24.38V23.12C69.3094 24.128 68.3374 24.92 67.2094 25.496C66.0814 26.072 64.8814 26.36 63.6094 26.36C62.0494 26.36 60.6094 25.952 59.2894 25.136C57.9934 24.296 56.9614 23.18 56.1934 21.788C55.4254 20.372 55.0414 18.836 55.0414 17.18C55.0414 15.5 55.4254 13.964 56.1934 12.572C56.9614 11.156 57.9934 10.04 59.2894 9.22399C60.6094 8.38399 62.0494 7.96399 63.6094 7.96399C64.8814 7.96399 66.0814 8.25199 67.2094 8.82799C68.3374 9.40399 69.3094 10.196 70.1254 11.204V2.41999C70.1254 1.96399 70.2814 1.57999 70.5934 1.26799C70.9054 0.955988 71.2894 0.799988 71.7454 0.799988ZM64.2574 23.3C65.3374 23.3 66.3334 23.024 67.2454 22.472C68.1574 21.92 68.8774 21.176 69.4054 20.24C69.9334 19.304 70.1974 18.284 70.1974 17.18C70.1974 16.052 69.9334 15.02 69.4054 14.084C68.8774 13.148 68.1574 12.404 67.2454 11.852C66.3334 11.3 65.3374 11.024 64.2574 11.024C63.1774 11.024 62.1814 11.3 61.2694 11.852C60.3574 12.404 59.6254 13.148 59.0734 14.084C58.5454 15.02 58.2814 16.052 58.2814 17.18C58.2814 18.284 58.5454 19.304 59.0734 20.24C59.6254 21.176 60.3574 21.92 61.2694 22.472C62.1814 23.024 63.1774 23.3 64.2574 23.3Z" fill="white"/>
<path d="M80.2246 26C79.7686 26 79.3846 25.844 79.0726 25.532C78.7606 25.22 78.6046 24.836 78.6046 24.38V2.41999C78.6046 1.96399 78.7606 1.57999 79.0726 1.26799C79.3846 0.955988 79.7686 0.799988 80.2246 0.799988C80.6806 0.799988 81.0646 0.955988 81.3766 1.26799C81.6886 1.57999 81.8446 1.96399 81.8446 2.41999V24.38C81.8446 24.836 81.6886 25.22 81.3766 25.532C81.0646 25.844 80.6806 26 80.2246 26Z" fill="white"/>
</svg>
